<?xml version="1.0" encoding="utf-8"?>
<!-- Generator: Adobe Illustrator 22.1.0, SVG Export Plug-In . SVG Version: 6.00 Build 0)  -->
<svg version="1.1" baseProfile="basic" id="Layer_1"
	 xmlns="http://www.w3.org/2000/svg" xmlns:xlink="http://www.w3.org/1999/xlink" x="0px" y="0px" width="90px" height="90px"
	 viewBox="0 0 90 90" xml:space="preserve">
<path d="M36.882,8.118C16.513,8.118,0,24.631,0,45c0,20.369,16.513,36.882,36.882,36.882c20.369,0,36.882-16.513,36.882-36.882
	C73.764,24.631,57.251,8.118,36.882,8.118z M58.871,57.67c-0.794,1.808-2.241,5.122-2.815,6.587
	c-0.121,0.308-0.301,0.591-0.551,0.808c-6.196,5.371-18.524-1.173-27.96-10.609c-9.436-9.436-15.981-21.764-10.609-27.96
	c0.217-0.25,0.499-0.43,0.808-0.551c1.465-0.574,4.779-2.021,6.587-2.815c0.706-0.31,1.529-0.043,1.923,0.62l5.517,9.297
	c0.273,0.46,0.285,1.029,0.032,1.501l-3.421,6.372c-0.318,0.593-0.211,1.325,0.265,1.801l5.317,5.317l5.317,5.317
	c0.476,0.476,1.208,0.584,1.801,0.266l6.372-3.421c0.471-0.253,1.041-0.241,1.501,0.032l9.297,5.517
	C58.915,56.141,59.181,56.964,58.871,57.67z"/>
<path d="M89.333,44.221L64.924,30.129c-0.909-0.525-2.045,0.131-2.045,1.181v28.185c0,1.05,1.136,1.705,2.045,1.181l24.409-14.092
	C90.242,46.058,90.242,44.746,89.333,44.221z"/>
<g>
</g>
<g>
</g>
<g>
</g>
<g>
</g>
<g>
</g>
<g>
</g>
</svg>
